<?xml version="1.0" encoding="UTF-8" standalone="no"?>
<!DOCTYPE svg PUBLIC "-//W3C//DTD SVG 1.1//EN" "http://www.w3.org/Graphics/SVG/1.1/DTD/svg11.dtd">
<svg width="100%" height="100%" viewBox="0 0 2084 2084" version="1.1" xmlns="http://www.w3.org/2000/svg" xmlns:xlink="http://www.w3.org/1999/xlink" xml:space="preserve" style="fill-rule:evenodd;clip-rule:evenodd;stroke-linecap:round;stroke-linejoin:round;stroke-miterlimit:1.5;">
    <g id="vectors">
        <g id="feet">
            <path d="M1475.32,1233.1c-3.393,-7.699 9.97,17.932 2.139,28.575c-4.543,-6.404 -10.07,-22.96 -23.607,-23.686" style="fill:#373538;stroke:#000;stroke-width:10.42px;" />
            <path d="M1508.81,1208.06c-13.401,-6.431 30.517,12.611 24.698,38.115c-11.356,-10.489 -19.86,-16.254 -34.173,-14.979" style="fill:#373538;stroke:#000;stroke-width:10.42px;" />
            <path d="M1549.55,1183.03c25.675,1.371 49.746,24.559 53.725,50.071c-15.578,-12.928 -34.247,-28.187 -59.367,-26.336" style="fill:#373538;stroke:#000;stroke-width:10.42px;" />
            <path d="M1201.03,1596.87c6.575,-1.489 33.642,-0.806 37.048,24.038c-12.75,-9.679 -22.819,-9.243 -34.829,-3.586" style="fill:#373538;stroke:#000;stroke-width:10.42px;" />
            <path d="M839.325,1641.57c-7.202,14.98 9.389,41.446 36.973,37.56c-7.467,-3.832 -19.135,-10.664 -13.076,-24.586" style="fill:#373538;stroke:#000;stroke-width:10.42px;" />
            <path d="M1248.99,1660.54c11.34,-3.416 51.802,7.251 54.87,31.821c-24.65,-9.086 -48.486,0.806 -62.162,-2.395" style="fill:#373538;stroke:#000;stroke-width:10.42px;" />
            <path d="M1006.28,1692.36c12.541,0.939 27.472,24.856 22.732,48.854c-9.747,-9.469 -25.588,-26.228 -35.865,-26.713c-2.768,-3.095 7.817,-26.519 13.133,-22.141Z" style="fill:#373538;stroke:#000;stroke-width:10.42px;" />
            <path d="M985.911,1612.88c11.781,-10.271 -11.989,-47.932 -33.995,-91.857c-12.033,-24.018 -48.161,-113.549 -51.836,-143.386c-3.675,-29.836 0.87,-95.023 -5.793,-108.559l-74.252,-27.826c-20.731,33.9 -20.766,56.156 7.388,118.67c11.931,26.492 38.18,97.068 50.554,150.31c7.332,31.547 1.733,50.58 7.347,68.258c-8.84,8.304 -57.107,46.218 -46.766,61.968c6.809,10.37 26.047,22.396 34.017,6.63c7.971,-15.765 25.879,-40.715 22.138,-26.048c-2.209,8.658 7.942,18.664 16.265,18.32c-1.662,18.349 71.206,76.138 82.419,75.126c11.212,-1.013 14.894,-12.41 13.683,-19.424c-1.212,-7.015 -7.554,-9.715 -20.952,-22.666c-3.218,-3.11 -5.81,-6.241 -7.895,-9.037" style="fill:#a66a6c;stroke:#000;stroke-width:10.42px;" />
            <path d="M985.911,1612.88c39.803,-5.874 59.151,-0.738 67.997,0c8.617,0.72 19.774,-4.91 34.369,-7.569c14.594,-2.658 28.616,0.444 40.921,-2.359c12.306,-2.802 32.021,-8.238 44.86,-8.873c17.82,-0.881 27.596,-4.423 29.573,10.291c1.977,14.715 -0.017,19.648 -22.419,21.524c-15.861,1.329 -24.86,3.571 -43.429,6.009c-14.303,1.878 -26.779,9.208 -38.656,9.659" style="fill:#a66a6c;stroke:#000;stroke-width:10.42px;" />
            <path d="M973.691,1618.28c12.999,-12.447 46.854,-0.714 69.008,8.524c10.431,4.349 20.321,5.54 29.487,6.543c5.819,0.637 24.444,-0.18 39.89,2.49c14.927,2.58 26.359,4.624 37.267,6.161c10.582,1.491 23.988,-1.089 39.157,0.495c22.855,2.386 34.896,11.715 49.963,11.021c13.12,-0.604 11.357,6.818 8.568,21.21c-4.19,21.623 -7.473,18.687 -28.845,15.202c-24.161,-3.941 -46.385,-1.117 -138.028,-10.473c-52.725,-5.383 -87.765,-4.597 -101.925,-16.094" style="fill:#a66a6c;stroke:#000;stroke-width:10.42px;" />
            <path d="M978.233,1663.36c-3.915,-5.248 -6.373,-9.757 -10.139,-13.83c-4.691,-5.072 -11.473,-9.493 -14.881,-13.563c-3.628,-4.333 -4.838,-14.054 -11.507,-17.733c-8.064,-4.448 -15.535,0.189 -18.999,2.832" style="fill:#a66a6c;stroke:#000;stroke-width:10.42px;" />
            <path d="M862.708,1198.14c-28.744,31.579 -18.733,53.744 2.02,80.218c20.752,26.474 29.264,19.274 46.386,15.767c39.762,-8.145 55.06,5.892 96.186,-13.157c30.295,-14.032 134.901,-61.154 182.063,-61.752c16.665,27.446 51.158,65.622 82.424,48.694c-9.545,-1.961 -16.45,-5.999 -23.895,-13.673c-2.679,-2.761 1.83,-5.08 -1.017,-10.603c-5.831,-11.309 -22.689,-24.279 -30.205,-24.199c5.323,-9.779 17.744,-2.662 35.991,-4.645c7.798,-0.848 24.461,-3.801 37.416,-1.142c12.955,2.658 15.992,14.166 62.556,12.863c46.565,-1.303 50.244,11.001 61.645,14.749c11.4,3.748 24.747,8.758 44.762,-6.997c0,0 14.656,-2.596 30.98,-1.041c16.323,1.555 8.932,-11.009 13.948,-21.175c3.554,-7.204 8.248,3.283 14.18,-2.857c5.931,-6.139 33.928,5.413 30.402,-11.356c-2.506,-11.918 10.743,-17.25 -17.174,-22.954c-12.392,-2.532 -29.378,-8.516 -37.733,-11.094c-8.03,-2.478 -18.574,-2.301 -26.759,-5.228c-12.027,-4.301 -19.789,-10.59 -40.678,-16.359c-11.048,-3.051 -24.544,-0.264 -44.07,-4.463c-16.796,-3.612 -33.265,-11.448 -54.583,-12.837c-15.515,-1.01 -36.572,-0.432 -56.584,-3.665c-12.42,-2.007 -28.187,-6.977 -44.874,-4.953c-44.211,5.363 -84.312,39.804 -131.314,57.838c-47.002,18.035 -81.635,13.397 -125.147,25.558" style="fill:#a66a6c;stroke:#000;stroke-width:10.42px;" />
            <path d="M1459.04,1234.26c-8.395,2.032 -14.024,-2.236 -30.809,-2.423c-21.627,-0.241 -32.177,-5.327 -59.098,-5.344" style="fill:none;stroke:#000;stroke-width:10.42px;" />
            <path d="M1261.49,1140.47c16.56,4.305 33.48,19.335 43.174,22.549c10.713,3.551 30.389,5.948 40.255,8.431c12.831,3.23 31.206,9.977 41.646,11.66c13.339,2.15 24.746,-1.048 35.381,-0.72c14.63,0.451 26.083,13.358 44.187,10.286c14.569,-2.472 30.768,3.614 38.223,10.064c6.149,5.321 -1.202,8.869 -1.79,13.317" style="fill:none;stroke:#000;stroke-width:10.42px;" />
        </g>
        <path id="body" d="M1065.48,1185.17c16.012,-5.977 37.12,-27.668 37.12,-27.668c18.34,-12.565 48.88,-20.623 99.842,-82.595c23.261,-28.287 60.521,-31.073 105.869,-59.838c29.303,-18.588 54.937,-38.783 85.773,-53.573c143.761,-68.95 129.751,-165.119 150.256,-179.215c20.504,-14.095 100.99,-14.387 101.833,-17.927c0.843,-3.54 5.871,-10.866 5.871,-10.866l88.91,-83.82c-0,-0 -21.304,-14.173 -32.111,-44.679c-10.807,-30.507 -54.132,-88.475 -116.799,-121.62c-62.667,-33.144 -142.085,-43.571 -228.705,-39.818c-60.305,2.613 -51.302,-24.869 -117.952,-56.057c-7.399,-3.463 -18.714,-9.468 -25.918,-12.961c-54.415,-26.383 -152.418,-58.938 -267.379,-51.269c-114.961,7.669 -173.996,45.647 -190.265,66.892c-105.631,54.978 -198.357,77.021 -215.168,124.852c-37.573,18.013 -64.475,47.957 -69.632,67.422c-25.204,14.862 -72,77.853 -72.009,103.574c-57.74,72.442 -85.12,153.582 -78.244,252.17c3.292,47.208 1.475,86.984 16.607,110.4c-0.295,23.361 -4.669,72.059 -4.669,72.059c-0,-0 -1.578,24.719 22.266,-4.876c3.891,12.511 23.689,-20.002 31.446,-45.617c7.757,-25.615 7.726,36.707 7.726,36.707c0,-0 -31.193,50.718 -36.497,74.097c-5.304,23.379 -133.203,276.675 -144.305,295.928c-11.102,19.253 -12.351,40.028 -12.351,40.028l-8.677,16.468l16.438,-8.249l9.88,1.487l10.172,-22.921c0,-0 70.315,-88.689 95.369,-133.684c27.779,-49.889 105.555,-93.623 128.433,-125.587c24.38,-8.301 53.857,-17.878 75.93,-45.678c20.528,-0.143 35.733,-6.686 45.43,-17.84c79.438,6.306 150.588,30.985 235.61,39.882c-11.458,17.834 -12.305,41.804 -16.954,50.017c9.55,3.53 57.324,-2.089 119.473,-29.375c0.369,-5.775 7.801,-23.039 7.801,-23.039c0,-0 -1.237,20.102 0.091,19.491c2.351,-1.082 4.722,-2.194 7.11,-3.338c0.879,-11.136 11.795,-23.296 11.795,-23.296c0,0 -0.882,13.778 1.2,17.243c22.045,-11.471 45.475,-25.702 69.52,-43.234c21.369,-8.898 38.088,-12.056 49.864,-20.077Z" style="fill:#573912;stroke:#000;stroke-width:10.42px;" />
        <g id="details-tail">
            <path d="M389.896,1325.72l-19.613,-23.678l-8.456,0l-10.889,-10.152l-13.704,-0l-10.226,-9.488l-5.113,19.64l4.091,10.782l11.248,-0l13.704,10.013l32.452,8.374l6.506,-5.491Z" style="fill:#251a1b;fill-opacity:0.6;" />
            <path d="M364.964,1347.74l-14.026,-16.53l-13.704,-0l-0,-10.463l-15.339,0.154l-12.047,-3.256l-11.006,22.353l23.053,10.684l15.339,2.024l13.704,-3.234l14.026,-1.732Z" style="fill:#251a1b;fill-opacity:0.6;" />
            <path d="M337.234,1378.87l-15.339,-14.92l-32.759,-4.355l0.17,17.317l9.536,8.911l29.755,6.967l8.637,-13.92Z" style="fill:#251a1b;fill-opacity:0.6;" />
            <path d="M313.185,1417.37l-14.343,-19.368l-26.269,-5.219l0.262,27.46l32.001,9.431l8.349,-12.304Z" style="fill:#251a1b;fill-opacity:0.6;" />
            <path d="M289.136,1451.87l-40.736,-11.132l-8.237,16.184l27.362,24.237l21.611,-29.289Z" style="fill:#251a1b;fill-opacity:0.6;" />
            <path d="M259.837,1491.33l-32.138,-10.171l-20.706,55.741l-8.677,16.468l16.438,-8.249l9.88,1.487l10.172,-22.921l25.031,-32.355Z" style="fill:#251a1b;fill-opacity:0.6;" />
            <path d="M342.575,1249.77l23.547,10.083l20.794,5.193l0.881,20.185l32.986,15.294l-41.397,1.52l-18.35,-20.125l-16.128,-6.234l-7.674,-14.617l5.341,-11.299Z" style="fill:#251a1b;fill-opacity:0.6;" />
            <path d="M350.938,1231.73l22.343,5.521l5.728,12.515l22.373,12.383l3.589,13.755l26.193,15.985l11.699,-10.344l-22.08,-11.392l-7.341,-20.387l-19.766,-12.939l-14.667,-11.384l36.511,5.545l10.959,18.778l10.648,16.294l11.558,9.844l9.923,-11.498l13.744,-4.762l-26.758,-9.878l-11.862,-34.929l-24.42,-5.068l-11.873,-15.27l-28.879,-8.06l-4.622,13.298l20.444,7.691l-23.158,0.607l-10.286,23.695Z" style="fill:#251a1b;fill-opacity:0.6;" />
            <path d="M482.575,1255.74l-27.024,-16.569l-12.026,-31.963l-31.88,-12.198l-13.63,-20.923l-19.006,-2.093l7.15,-21.018l14.533,6.689l6.399,22.282l13.692,-4.386l9.946,10.885l29.962,10.402l3.393,12.14l48.152,-7.617l22.302,17.364l-14.665,15.171l-19.315,-14.334l-28.206,1.253l0,10.928l18.979,1.266l10.363,13.542l-19.119,9.179Z" style="fill:#251a1b;fill-opacity:0.6;" />
            <path d="M430.556,1174.12l14.458,-8.217l20.363,8.956l19.53,14.306l-16.159,5.676l-11.975,-11.838l-19.715,0l-6.502,-8.883Z" style="fill:#251a1b;fill-opacity:0.6;" />
        </g>
        <path id="detail-wing" d="M400.146,1126.84c0,-0 0.031,-62.322 -7.726,-36.707c-7.757,25.615 -27.555,58.128 -31.446,45.617c-23.844,29.595 -22.266,4.876 -22.266,4.876c-0,-0 4.374,-48.698 4.669,-72.059c-15.132,-23.416 -13.315,-63.192 -16.607,-110.4c-6.876,-98.588 20.504,-179.728 78.244,-252.17c0.009,-25.721 46.805,-88.712 72.009,-103.574c5.157,-19.465 32.059,-49.409 69.632,-67.422c16.811,-47.831 109.537,-69.874 215.168,-124.852c64.649,-60.11 181.545,-16.424 287.201,2.687c-72.598,-2.659 -152.93,13.877 -175.97,28.21c28.852,0.307 75.234,-5.478 104.566,0.565c-48.59,35.783 -132.463,22.107 -244.713,110.291c63.002,-22.587 183.341,-79.602 264.546,-68.256c-51.168,11.151 -139.49,41.771 -197.507,77.834c50.407,-10.109 123.653,-18.582 155.447,-8.597c-43.903,29.881 -123.472,33.698 -151.302,57.199c13.939,-1.602 37.746,-8.951 57.077,-3.62c-9.232,12.006 -59.873,37.237 -80.586,63.012c76.268,-33.127 121.31,-76.286 187.794,-60.621c-51.608,28.335 -98.367,68.132 -136.231,93.644c46.118,-7.67 96.302,-46.029 145.475,-35.887c-42.33,71.589 -142.973,117.698 -170.314,182.563c16.174,-2.359 44.303,-11.539 61.2,-4.847c-16.766,61.764 -82.877,84.173 -93.625,110.665c-8.742,-6.458 -16.67,-18.74 -18.648,-25.298c-12.059,22.168 -46.823,129.904 -36.738,166.412c-14.315,-3.086 -23.626,-8.991 -35.66,-9.523c-6.893,-9.168 -6.853,-22.188 -7.734,-31.515c-9.088,17.059 -35.182,21.02 -43.95,46.609c-14.6,8.076 -21.313,-1.019 -26.14,-7.975c-8.897,13.897 -22.921,30.268 -38.451,35.272c2.327,-15.059 -29.745,-13.291 -23.22,-22.455c6.526,-9.165 14.098,-19.868 20.273,-32.509c-23.717,25.014 -67.848,46.238 -88.518,67.267c-20.669,21.03 -54.186,40.349 -71.787,41.723c-5.199,-16.71 -4.162,-56.159 -4.162,-56.159Z" style="fill:#e19956;fill-opacity:0.3;" />
        <g id="details-back">
            <path d="M511.034,1114.59l-7.998,5.407l-27.634,-0.58l-6.197,-13.193l-19.355,22.28l-11.126,-0l-19.147,15.36l-13.509,-6.672l-5.955,-8.688l-0.051,-9.418l14.336,-1.061l-14.336,-22.217l-4.507,-11.826l-12.362,-9.973l-6.173,-20.114l-7.245,-25.587l17.861,13.356l4.565,-13.356l7.861,13.356l24.23,-0l10.486,21.097l23.967,1.927l10.46,17.89l18.894,4.645l22.935,27.367Zm-70.629,-28.504l-4.911,20.138l-8.622,11.854l-8.392,-5.857l0.854,-26.135l-10.006,-12.077l0.502,-11.777l19.008,6.303l1.243,11.934l10.324,5.617Zm39.16,-44.422l0.452,-13.356l-5.807,-18.049l-13.393,-6.177l0,-7.762l-19.818,-0.408l-15.735,0l-4.801,-9.385l-13.007,-3.038l-7.394,-14.326l-0,-11.038l-7.861,-10.387l7.861,-19.114l12.064,19.114l0,11.778l10.317,7.516l13.393,6.593l11.525,0.936l10.095,9.753l15.453,-0.463l18.42,13.164l2.701,22.103l14.837,9.19l-0.193,22.46l16.46,0.142l9.077,23.099l11.998,16.192l-22.643,16.023l-11.713,-14.799l-2.535,-17.416l-27.057,-0l-0.981,-11.777l-22.535,2.456l-8.218,-0.661l-1.109,-11.631l-9.013,-3.486l-6.479,-14.555l-14.341,-6.047l-19.523,-0l-0,-10.884l9.266,-10.301l15.539,3.545l9.051,6.756l20.95,-0l4.919,24.24l19.778,-0Z" style="fill:#251a1b;fill-opacity:0.75;" />
            <path d="M546.209,1028.31l-21.547,7.598l-8.143,-18.482l-5.485,-17.546l0,-16.481l-5.609,-11.243l-14.958,0.255l2.973,-10.164l17.594,-1.227l18.163,11.476l0.605,20.213l0.643,14.416l3.018,10.301l12.746,-0l-0,10.884Z" style="fill:#251a1b;fill-opacity:0.75;" />
            <path d="M529.485,818.7c0,0 -47.216,34.401 -79.35,84.076c0,0 -0.089,-8.761 2.099,-17.34c-6.931,4.738 -15.906,14.741 -15.906,14.741c-0,-0 34.459,-74.286 86.242,-115.45l23.639,21.824l7.437,11.378l-7.437,13.229l-16.724,-12.458Z" style="fill:#251a1b;fill-opacity:0.75;" />
            <path d="M392.201,837.167l-16.345,18.643l-3.444,-20.993c-0,-0 -43.821,47.99 -28.91,126.204l11.233,-8.365l6.831,21.456c-0,-0 2.28,-44.155 38.496,-82.385c-0,0 -9.841,-4.253 -23.215,2.253c-7.93,3.857 15.354,-56.813 15.354,-56.813Z" style="fill:#251a1b;fill-opacity:0.75;" />
            <path d="M385.498,791.668c-0,0 -34.657,37.878 -45.09,80.809c-0,0 0.112,-68.179 39.97,-109.621l5.12,28.812Z" style="fill:#251a1b;fill-opacity:0.75;" />
            <path d="M657.597,982.014l-1.757,-13.506l-22.506,5.604l-6.396,-20.251l-17.684,7.636l-10.25,-8.19l-0.407,-20.514l-19.385,-6.259l-1.717,-22.07l-23.849,0l-28.215,-26.699c0,-0 8.503,-24.945 28.215,-42.948c19.711,-18.003 15.991,-0 15.991,-0l7.974,8.935l-1.576,20.351l-13.409,-0.373l-8.98,-14.001l-9.324,22.748l9.324,0l6.523,11.411l20.205,1.15l32.357,31.51l17.18,-2.867l4.921,-9.217l1.175,-22.834l28.382,-9.153l4.609,24.589l14.057,5.71l19.78,-17.03l32.13,18.718l-17.23,32.865l-18.238,-19.333l-15.601,7.899l22.014,21.846l-7.67,26.371l-23.121,-14.628l-3.609,14.628l7.605,15.981l-2.69,7.977l16.277,4.3l-7.897,18.428l-30.134,-8.844l-20.096,1.528l-18.393,-4.116l-5.71,-11.721l-0.942,-11.378l22.502,-2.975l25.565,-1.278Zm13.855,-46.503l-6.06,12.23l-19.431,0l-9.793,-12.111l15.314,-11.823l7.547,8.927l12.423,2.777Z" style="fill:#251a1b;fill-opacity:0.75;" />
            <path d="M646.191,1028.31l-44.218,-0l-5.474,13.356l11.666,11.688l-0.373,29.465l35.838,-41.153l2.561,-13.356Z" style="fill:#251a1b;fill-opacity:0.75;" />
            <path d="M606.35,977.072l-9.851,6.331l-16.358,13.117l-15.774,-11.703l-5.198,-12.892l19.539,-0.867l17.791,-4.88l9.851,10.894Z" style="fill:#251a1b;fill-opacity:0.75;" />
            <path d="M429.687,902.362l-1.053,21.445l7.9,15.722l-14.825,0.604l-6.569,-19.365l14.547,-18.406Z" style="fill:#251a1b;fill-opacity:0.75;" />
            <path d="M848.994,437.17l-17.403,1.762l-32.709,24.25l-37.059,-0l-38.932,16.499l-15.707,13.426l-75.347,29.055l-40.2,14.107l40.184,-28.294l40.793,-28.294l28.596,-9.313l34.273,-23.686l52.38,0l32.765,-17.055l28.366,7.543Z" style="fill:#251a1b;fill-opacity:0.75;" />
            <path d="M739.166,579.477l-18.85,-0.344l-8.947,6.586l-13.061,2.174l-3.793,-7.764c-14.663,10.89 -25.703,33.39 -32.121,44.023l36.756,-9.23c15.101,-8.091 28.598,-19.572 40.016,-35.445Z" style="fill:#251a1b;fill-opacity:0.75;" />
            <path d="M784.696,472.517c-40.457,5.063 -133.427,55.737 -231.039,151.635c32.218,-17.228 65.178,-35.289 80.364,-45.019c25.5,-16.339 78.303,-65.18 150.675,-106.616Z" style="fill:#251a1b;fill-opacity:0.75;" />
            <path d="M609.032,548.334c-0,0 -25.859,9.196 -40.206,10.207c-14.347,1.01 -62.353,53.918 -81.368,75.644c40.711,-28.039 121.574,-85.851 121.574,-85.851Z" style="fill:#251a1b;fill-opacity:0.75;" />
            <path d="M547.585,643.271l-7.533,27.378c-0,0 -111.344,81.71 -140.689,146.302c35.521,-89.599 148.222,-173.68 148.222,-173.68Z" style="fill:#251a1b;fill-opacity:0.75;" />
            <path d="M458.716,763.779l7.548,19.414c-0,0 -55.153,57.49 -66.901,76.871c28.59,-63.097 59.353,-96.285 59.353,-96.285Z" style="fill:#251a1b;fill-opacity:0.75;" />
            <path d="M820.746,750.601l13.51,13.178l14.738,-6.654l-38.226,30.089l-16.255,-5.756c6.649,-16.082 15.725,-25.45 26.233,-30.857Z" style="fill:#251a1b;fill-opacity:0.75;" />
            <path d="M874.59,479.681l-22.091,0l-10.7,15.09l-32.805,-5.465l-73.511,37.161l53.816,9.802l23.904,-22.692l20.56,0.516l18.482,-14.913l21.6,-7.303l0.745,-12.196Z" style="fill:#251a1b;fill-opacity:0.75;" />
            <path d="M1170.4,669.97l-22.201,24.594l-42.069,-2.374l9.682,-13.674l29.706,-5.005l14.396,-19.363l16.54,0.204l4.821,-10.488l-22.365,-2.848l-1.271,-26.714l-19.131,-4.695l7.681,-27.067l-19.489,-1.635l-1.976,14.038l-18.267,2.395l4.728,18.605l-23.136,5.312l-13.722,-12.304l-22.624,-7.214l-17.463,8.717l7.423,15.8l19.709,0l5.393,19.943l-25.102,-0l-32.124,11.625l32.124,5.229l11.349,-2.452l4.253,18.117l-15.602,7.32l-42.214,-4.869l-18.306,3.786l-2.727,-19.995l-36.7,3.123l-28.827,2.529l-26.864,20.121l-34.029,14.75l-18.461,6.994l0,-22.671l31.668,-18.08l13.836,-1.173l34.203,-24.354l17.561,-9.509l24.488,9.509l42.079,-10.223l8.576,-9.72l-42.855,0l-13.4,-19.294l-35.473,0l-31.597,19.294l-26.01,19.943l-25.85,11.927l-32.503,23.53l-9.128,19.592l-12.954,0.27l0.617,-15.788l-26.474,2.582l11.5,-24.525l59.304,-37.531l-10.558,-12.505l-14.673,12.505l-34.073,-15.193l38.896,-34.605l24.728,2.519l7.963,-7.466l11.887,7.939l-5.707,14.297l23.312,0l14.513,-13.888l25.504,0l24.579,-24.426l-26.946,-0.671l-28.459,6.624l-23.116,-4.313l-22.877,-1.083l-17.66,-12.172l26.419,-23.697l32.034,-5.252l28.13,-1.466l11.208,7.015l38.348,-3.813l-13.421,15.589l22.445,1.871l20.389,-14.134l12.112,-15.366l-30.835,-2.72l-7.265,-7.584l29.47,-4.633l18.857,-6.551l32.327,4.167l13.009,-2.27l34.088,-7.146l-52.503,-12.286l-8.182,9.951l-13.418,-3.283l-18.693,4.29l-12.743,-1.01l-25.533,4.193l-12.111,-13.656l35.603,-17.492l34.032,-1.851l12.863,2.8l-1.102,-2.163l27.699,0.439l-0,-15.125l-30.907,-3.196l-21.951,-0l6.005,-15.217l38.299,-6.873l-43.082,-7.217l-14.148,9.957l-27.641,1.156l-26.329,11.628l-24.341,-8.12l-29.761,5.892l-51.692,-1.515l19.824,-23.119l-21.585,14.574l-9.686,-2.449l-42.849,2.018c16.269,-21.245 75.304,-59.223 190.265,-66.892c114.961,-7.669 212.964,24.886 267.379,51.269c7.204,3.493 18.519,9.498 25.918,12.961c66.65,31.188 57.647,58.67 117.952,56.057c86.62,-3.753 166.038,6.674 228.705,39.818c62.667,33.145 105.992,91.113 116.799,121.62c10.807,30.506 32.111,44.679 32.111,44.679l-88.91,83.82c-0,0 -5.028,7.326 -5.871,10.866c-0.843,3.54 -81.329,3.832 -101.833,17.927l-5.599,7.529c-7.19,14.232 -11.255,43.668 -32.033,77.318l-0.002,-0.002c-15.938,26.018 -44.207,55.95 -88.852,81.918l-2.142,1.235l-44.531,-15.034l-32.592,-30.573l-36.855,-20.948l-38.208,-4.618l-1.116,-21.052l-16.168,-18.276l-3.811,-32.736l6.169,-26.843l-24.629,-0.2l17.303,-22.656l4.198,-18.087l-44.913,-17.052l17.118,-17.673l-0.859,-20.1l-44.986,20.247l27.816,-35.494l-29.242,0.79Zm-80.383,-123.502l25.795,-0.574l-9.682,15.426l0.125,0.22l-17.761,12.473l-8.616,12.657l-21.649,-2.11l-20.326,-15.098l-51.494,-0l-35.097,19.613l-27.31,-7.718l14.507,-15.542l8.837,3.647l16.317,-10.206l52.385,-13.79l11.435,5.511l20.006,11.327l22.964,-2.605l19.564,-13.231Zm-37.9,-47.593l33.521,6.617l7.979,22.502l20.036,-12.098l31.287,19.514l-13.737,4.944l-47.086,-4.085l-5.983,-8.741l-10.951,-12.836l-18.622,0.321l-12.232,-11.841l15.788,-4.297Zm-65.708,25.885l2.72,5.308l12.747,4.345l21.945,0.231l17.842,-3.131l-9.784,-12.516l-21.277,0.58l-10.856,0.112l-13.337,5.071Z" style="fill:#251a1b;fill-opacity:0.75;" />
        </g>
        <path id="belly" d="M1420.15,947.741c0,0 -96.901,-17.023 -192.233,39.401c-150.227,88.915 -307.005,123.439 -401.915,112.786l-20.711,30.268l27.121,-2.447l-18.963,26.922l-43.33,29.181l39.054,17.477l-229.207,-0.437l235.61,39.882l-16.954,50.017l119.473,-29.375c-0,-0 -1.941,0.941 7.801,-23.039l7.201,16.153l11.795,-23.296l0.838,20.479c0,-0 52.09,-34.548 69.882,-46.47c18.161,-12.17 58.301,-24.279 58.301,-24.279l28.683,-23.466c-0,0 30.775,-16.126 50.46,-32.354c19.686,-16.228 45.256,-44.547 58.563,-59.594c13.306,-15.046 67.438,-31.461 83.64,-42.753c16.202,-11.293 52.12,-33.374 67.938,-44.067c15.818,-10.693 56.953,-30.989 56.953,-30.989Z" style="fill:#686463;fill-opacity:0.9;" />
        <path id="breast" d="M1346.87,579.59l14.287,5.966l28.22,2.323l-13.407,-14.422l-29.1,6.133Zm87.38,-20.61l-1.081,7.152l14.01,-2.062l-12.929,-5.09Zm72.45,308.142l0.002,0.002c25.678,-41.585 25.831,-76.735 37.632,-84.847c16.961,-11.659 74.965,-13.874 94.976,-16.365l9.472,-7.237l36.631,-70.01l8.284,-3.64c-15.066,-25.078 -44.206,-53.762 -56.898,-61.999c-15.893,-10.314 -64.483,-26.714 -82.227,-39.649c-20.487,-14.936 -75.782,-51.459 -75.782,-51.459l0.129,8.05c-0,-0 -37.681,-26.905 -39.573,-31.617c-2.192,-5.458 -0.525,20.383 -0.525,20.383l10.961,16.933l-13.056,-3.069l2.095,-13.864l-24.146,-13.124l-0.404,18.962l-9.695,4l-29.658,-30.978l-17.74,6.987l22.324,21.296l-34.011,-5.702l-5.416,8.044l13.563,10l12.049,5.271l-26.428,10.314l-15.569,-5.141l-2.134,8.779l-16.292,8.118l7.871,15.156l26.643,-9.632l7.092,-1.494l-11.619,3.131l-1.034,15.408l9.114,5.259l-6.217,4.296l-10.617,-9.555l-6.039,6.886l8.095,8.434l-3.391,6.112l-11.296,-3.1l1.612,12.605l10.297,6.536l-1.334,15.621l9.537,0.841l-8.258,6.301l-0.893,12.973l10.49,-4.559l8.786,6.896l-9.584,14.99l2.846,10.19l11.553,-4.878l7.458,4.068l-11.593,12.981l1.236,12.294l17.139,-5.313l12.21,1.566l0,9.81l17.485,0.877l6.353,10.182l7.527,0.634l-4.521,29.915l-21.353,-8.227l-29.495,2.796l-9.762,10.798l40.214,1.567l-1.783,17.761l-21.112,-3.535l-8.726,6.809l7.021,11.004l-6.874,12.159l11.276,5.865l10.242,-6.927l3.591,6.284l-16.28,12.033l-13.572,12.028l-10.332,8.893l-12.77,-3.962l-9.578,10.932l-10.164,4.339l-40.443,33.887l10.264,11.283l27.401,-12.038l14.348,3.039l-13.777,15.008l-2.813,11.552l13.098,3.374l-23.001,10.028l-16.189,10l-3.064,10.37l2.085,10.701l13.375,-1.886l-13.559,17.107l-2.56,11.188l21.705,-1.869l15.083,-5.219l47.442,-12.292l20.575,-12.905c6.898,-4.059 13.977,-7.906 21.353,-11.444c61.17,-29.338 93.776,-63.604 112.622,-94.37Z" style="fill:#6d4e2f;" />
        <path id="throat" d="M1518.68,844.442c25.679,-41.585 13.861,-54.053 25.662,-62.165c16.961,-11.659 74.965,-13.874 94.976,-16.365l9.472,-7.237c-10.451,-22.191 -22.266,-37.099 -39.207,-49.293c-25.474,-18.335 -81.03,-8.216 -129.778,-47.808c-21.229,-17.241 -46.797,-42.463 -50.785,-33.417c-6.21,14.084 -1.2,33.581 9.962,57.331c8.752,18.621 0.939,43.332 -0.362,58.095c-5.067,57.512 37.444,109.105 80.06,100.859Z" style="fill:#9e9797;" />
        <path id="brow" d="M1678.76,664.431c-11.202,-18.836 -26.66,-38.008 -49.999,-47.92c-43.168,-18.334 -34.039,-10.542 -67.262,-29.491c-28.103,-16.03 -82.704,-55.102 -82.704,-55.102l-0.028,9.865l-8.267,-1.091l-21.022,-18.746c-8.09,0.035 -14.088,7.734 -14.088,7.734c1.99,1.261 6.975,6.145 9.89,11.433l-21.366,-4.445l-6.049,5.019c0,0 -12.321,-0.233 -16.031,-6.297c-10.672,19.391 15.68,25.073 41.171,56.381c20.389,-12.072 92.425,27.458 118.494,34.977c11.765,3.394 29.983,1.006 41.677,1.7c22.349,1.328 49.39,18.955 75.584,35.983Z" style="fill:#907c6f;" />
        <g id="beak">
            <path d="M1883.12,814.928c16.095,-14.254 -73.696,-85.742 -142.17,-145.264c-32.972,19.131 -112.006,40.065 -131.373,39.718c18.962,15.187 36.869,38.969 39.206,49.293c79.56,-4.943 218.243,70.508 234.337,56.253Z" style="fill:#543324;stroke:#000;stroke-width:10.42px;" />
            <path d="M1867.46,797.081c-18.677,-14.731 -132.134,-91.09 -161.672,-101.434c11.851,-3.208 25.803,-8.852 32.29,-11.641c43.079,31.389 111.886,93.843 129.382,113.075Z" style="fill:#7d7887;fill-rule:nonzero;" />
            <path d="M1738.07,723.437c0,0 28.074,19.213 30.829,9.374c4.292,-15.325 -30.829,-9.374 -30.829,-9.374Z" style="fill:none;stroke:#000;stroke-width:10.42px;" />
            <path d="M1609.58,709.382c89.676,23.732 215.724,73.717 262.033,107.009" style="fill:none;stroke:#000;stroke-width:10.42px;" />
        </g>
        <g id="eye">
            <path d="M1587.6,626.749c-12.559,-0.069 -21.945,4.785 -26.101,18.422c1.962,10.628 10.541,19.509 24.182,19.254c13.788,-0.257 23.566,-9.194 27.767,-16.34c-5.516,-10.199 -11.734,-21.258 -25.848,-21.336Z" style="fill:#ff2525;" />
            <path d="M1587.66,616.333c-8.54,-0.047 -15.939,1.821 -21.972,5.777c-6.239,4.092 -11.228,10.435 -14.15,20.024c-0.487,1.597 -0.582,3.287 -0.279,4.928c2.817,15.261 15.032,28.144 34.62,27.778c18.142,-0.339 31.024,-12.073 36.552,-21.475c1.849,-3.145 1.918,-7.027 0.183,-10.235c-7.249,-13.403 -16.407,-26.696 -34.954,-26.797Zm-0.057,10.416c-12.559,-0.069 -21.945,4.785 -26.101,18.422c1.962,10.628 10.541,19.509 24.182,19.254c13.788,-0.257 23.566,-9.194 27.767,-16.34c-5.516,-10.199 -11.734,-21.258 -25.848,-21.336Z" />
            <ellipse cx="1589.5" cy="648.617" rx="8.263" ry="8.265" style="stroke:#000;stroke-width:10.42px;" />
        </g>
        <path id="outline" d="M1648.79,758.675c79.559,-4.943 218.242,70.508 234.336,56.253c15.844,-14.032 -70.92,-83.526 -138.945,-142.466l-3.225,-2.798c-0,-0 -21.304,-14.173 -32.111,-44.679c-10.807,-30.507 -54.132,-88.475 -116.799,-121.62c-62.667,-33.144 -142.085,-43.571 -228.705,-39.818c-60.305,2.613 -51.302,-24.869 -117.952,-56.057c-7.399,-3.463 -18.714,-9.468 -25.918,-12.961c-54.415,-26.383 -152.418,-58.938 -267.379,-51.269c-114.961,7.669 -173.996,45.647 -190.265,66.892c-105.631,54.978 -198.357,77.021 -215.168,124.852c-37.573,18.013 -64.475,47.957 -69.632,67.422c-25.204,14.862 -72,77.853 -72.009,103.574c-57.74,72.442 -85.12,153.582 -78.244,252.17c3.292,47.208 1.475,86.984 16.607,110.4c-0.295,23.361 -4.669,72.059 -4.669,72.059c-0,-0 -1.578,24.719 22.266,-4.876c3.891,12.511 23.689,-20.002 31.446,-45.617c7.757,-25.615 7.726,36.707 7.726,36.707c0,-0 -31.193,50.718 -36.497,74.097c-5.304,23.379 -133.203,276.675 -144.305,295.928c-11.102,19.253 -12.351,40.028 -12.351,40.028l-8.677,16.468l16.438,-8.249l9.88,1.487l10.172,-22.921c0,-0 70.315,-88.689 95.369,-133.684c27.779,-49.889 105.555,-93.623 128.433,-125.587c24.38,-8.301 53.857,-17.878 75.93,-45.678c20.528,-0.143 35.733,-6.686 45.43,-17.84c79.438,6.306 150.588,30.985 235.61,39.882c-11.458,17.834 -12.305,41.804 -16.954,50.017c9.55,3.53 57.324,-2.089 119.473,-29.375c0.369,-5.775 7.801,-23.039 7.801,-23.039c0,-0 -1.237,20.102 0.091,19.491c2.351,-1.082 4.722,-2.194 7.11,-3.338c0.879,-11.136 11.795,-23.296 11.795,-23.296c0,0 -0.882,13.778 1.2,17.243c22.045,-11.471 45.475,-25.702 69.52,-43.234c21.369,-8.898 38.088,-12.056 49.864,-20.077c16.012,-5.977 37.12,-27.668 37.12,-27.668c18.34,-12.565 48.88,-20.623 99.842,-82.595c23.261,-28.287 60.521,-31.073 105.869,-59.838c29.303,-18.588 54.937,-38.783 85.773,-53.573c143.761,-68.95 129.751,-165.119 150.256,-179.215c20.504,-14.095 100.99,-14.387 101.833,-17.927c0.356,-1.495 1.459,-3.666 2.615,-5.675Z" style="fill:none;stroke:#000;stroke-width:10.42px;" />
        <path id="outline-wing" d="M400.146,1126.84c0,-0 -1.037,39.449 4.162,56.159c17.601,-1.374 51.118,-20.693 71.787,-41.723c20.67,-21.029 64.801,-42.253 88.518,-67.267c-6.175,12.641 -13.747,23.344 -20.273,32.509c-6.525,9.164 25.547,7.396 23.22,22.455c15.53,-5.004 29.554,-21.375 38.451,-35.272" style="fill:none;stroke:#000;stroke-width:10.42px;" />
    </g>
</svg>